<svg width="1080" height="1080" viewBox="0 0 1080 1080" fill="none" xmlns="http://www.w3.org/2000/svg">
<rect width="1080" height="1080" rx="335" fill="white"/>
<path d="M556.7 815H505.22C497.42 815 491.96 811.36 488.84 804.08L337.52 419.54V753.38H386.66C394.46 753.38 398.36 757.28 398.36 765.08V803.3C398.36 811.1 394.46 815 386.66 815H228.32C220.52 815 216.62 811.1 216.62 803.3V765.08C216.62 757.28 220.52 753.38 228.32 753.38H269.66V348.56H228.32C220.52 348.56 216.62 344.66 216.62 336.86V297.08C216.62 289.28 220.52 285.38 228.32 285.38H364.82C373.14 285.38 378.34 289.02 380.42 296.3L541.1 715.16L705.68 296.3C707.76 289.02 712.96 285.38 721.28 285.38H851.54C859.34 285.38 863.24 289.28 863.24 297.08V336.86C863.24 344.66 859.34 348.56 851.54 348.56H810.2V753.38H851.54C859.34 753.38 863.24 757.28 863.24 765.08V803.3C863.24 811.1 859.34 815 851.54 815H679.94C672.14 815 668.24 811.1 668.24 803.3V765.08C668.24 757.28 672.14 753.38 679.94 753.38H726.74V420.32L573.08 804.08C569.96 811.36 564.5 815 556.7 815Z" fill="#7200CA"/>
</svg>
