<svg width="1386" height="274" viewBox="0 0 1386 274" fill="none" xmlns="http://www.w3.org/2000/svg">
<path d="M157.614 269H133.854C130.254 269 127.734 267.32 126.294 263.96L56.4539 86.48V240.56H79.1339C82.7339 240.56 84.5339 242.36 84.5339 245.96V263.6C84.5339 267.2 82.7339 269 79.1339 269H6.05391C2.45391 269 0.653907 267.2 0.653907 263.6V245.96C0.653907 242.36 2.45391 240.56 6.05391 240.56H25.1339V53.72H6.05391C2.45391 53.72 0.653907 51.92 0.653907 48.32V29.96C0.653907 26.36 2.45391 24.56 6.05391 24.56H69.0539C72.8939 24.56 75.2939 26.24 76.2539 29.6L150.414 222.92L226.374 29.6C227.334 26.24 229.734 24.56 233.574 24.56H293.694C297.294 24.56 299.094 26.36 299.094 29.96V48.32C299.094 51.92 297.294 53.72 293.694 53.72H274.614V240.56H293.694C297.294 240.56 299.094 242.36 299.094 245.96V263.6C299.094 267.2 297.294 269 293.694 269H214.494C210.894 269 209.094 267.2 209.094 263.6V245.96C209.094 242.36 210.894 240.56 214.494 240.56H236.094V86.84L165.174 263.96C163.734 267.32 161.214 269 157.614 269ZM387.719 240.56H410.399C413.999 240.56 415.799 242.36 415.799 245.96V263.6C415.799 267.2 413.999 269 410.399 269H324.719C321.119 269 319.319 267.2 319.319 263.6V245.96C319.319 242.36 321.119 240.56 324.719 240.56C324.719 240.56 332.279 240.56 347.399 240.56V120.32H327.959C324.359 120.32 322.559 118.52 322.559 114.92V96.2C322.559 92.6 324.359 90.8 327.959 90.8H382.319C385.919 90.8 387.719 92.6 387.719 96.2V240.56ZM344.159 58.76C339.599 53.96 337.319 47.84 337.319 40.4C337.319 32.96 339.599 26.84 344.159 22.04C348.959 17 355.199 14.48 362.879 14.48C370.799 14.48 377.039 17 381.599 22.04C386.399 26.84 388.799 32.96 388.799 40.4C388.799 47.84 386.399 53.96 381.599 58.76C376.799 63.56 370.439 65.96 362.519 65.96C354.839 65.96 348.719 63.56 344.159 58.76ZM428.379 115.28V96.2C428.379 92.6 430.179 90.8 433.779 90.8H482.739C485.859 90.8 487.779 92.6 488.499 96.2L491.739 117.08C505.179 96.92 524.379 86.84 549.339 86.84C586.539 86.84 605.139 107.24 605.139 148.04V240.56H626.019C629.619 240.56 631.419 242.36 631.419 245.96V263.6C631.419 267.2 629.619 269 626.019 269H547.539C543.939 269 542.139 267.2 542.139 263.6V245.96C542.139 242.36 543.939 240.56 547.539 240.56H564.819V166.04C564.819 150.92 562.899 139.88 559.059 132.92C555.219 125.96 547.299 122.48 535.299 122.48C523.299 122.48 513.339 126.08 505.419 133.28C497.499 140.48 493.539 148.64 493.539 157.76V240.56H515.859C519.459 240.56 521.259 242.36 521.259 245.96V263.6C521.259 267.2 519.459 269 515.859 269H434.139C430.539 269 428.739 267.2 428.739 263.6V245.96C428.739 242.36 430.539 240.56 434.139 240.56H453.219V120.32H433.779C430.179 120.32 428.379 118.64 428.379 115.28ZM710.805 240.56H733.485C737.085 240.56 738.885 242.36 738.885 245.96V263.6C738.885 267.2 737.085 269 733.485 269H647.805C644.205 269 642.405 267.2 642.405 263.6V245.96C642.405 242.36 644.205 240.56 647.805 240.56C647.805 240.56 655.365 240.56 670.485 240.56V120.32H651.045C647.445 120.32 645.645 118.52 645.645 114.92V96.2C645.645 92.6 647.445 90.8 651.045 90.8H705.405C709.005 90.8 710.805 92.6 710.805 96.2V240.56ZM667.245 58.76C662.685 53.96 660.405 47.84 660.405 40.4C660.405 32.96 662.685 26.84 667.245 22.04C672.045 17 678.285 14.48 685.965 14.48C693.885 14.48 700.125 17 704.685 22.04C709.485 26.84 711.885 32.96 711.885 40.4C711.885 47.84 709.485 53.96 704.685 58.76C699.885 63.56 693.525 65.96 685.605 65.96C677.925 65.96 671.805 63.56 667.245 58.76ZM821.665 53.36V130.04H875.305L873.865 111.68C873.625 108.08 875.305 106.28 878.905 106.28H899.065C902.665 106.28 904.465 108.08 904.465 111.68V175.4C904.465 179 902.665 180.8 899.065 180.8H878.905C875.305 180.8 873.625 179 873.865 175.4L874.945 158.12H821.665V240.92H904.105L902.665 215.36C902.425 211.76 904.105 209.96 907.705 209.96H927.865C931.465 209.96 933.265 211.76 933.265 215.36V263.6C933.265 267.2 931.465 269 927.865 269H762.265C758.665 269 756.865 267.2 756.865 263.6V245.96C756.865 242.36 758.665 240.56 762.265 240.56H781.345V53.72H762.265C758.665 53.72 756.865 51.92 756.865 48.32V29.96C756.865 26.36 758.665 24.56 762.265 24.56H920.665C924.265 24.56 926.065 26.36 926.065 29.96V78.2C926.065 81.8 924.265 83.6 920.665 83.6H900.505C896.905 83.6 895.225 81.8 895.465 78.2L896.905 53.36H821.665ZM1120.35 240.56H1135.83C1139.43 240.56 1141.23 242.36 1141.23 245.96V263.6C1141.23 267.2 1139.43 269 1135.83 269H1095.15C1092.03 269 1090.23 267.2 1089.75 263.6L1086.87 242.36C1074.63 263 1055.07 273.32 1028.19 273.32C1004.67 273.32 986.552 266 973.832 251.36C961.112 236.48 954.752 213.56 954.752 182.6C954.752 151.4 962.072 127.64 976.712 111.32C991.592 95 1010.67 86.84 1033.95 86.84C1044.51 86.84 1053.87 88.88 1062.03 92.96C1070.19 96.8 1076.19 101.48 1080.03 107V30.32H1060.95C1057.35 30.32 1055.55 28.52 1055.55 24.92V5.84C1055.55 2.23999 1057.35 0.439981 1060.95 0.439981H1114.95C1118.55 0.439981 1120.35 2.23999 1120.35 5.84V240.56ZM1080.03 201.32V137.96C1076.91 133.16 1071.39 128.72 1063.47 124.64C1055.79 120.56 1047.99 118.52 1040.07 118.52C1010.31 118.52 995.432 138.68 995.432 179C995.432 209.96 1002.15 229.28 1015.59 236.96C1021.35 240.32 1029.27 242 1039.35 242C1049.43 242 1058.67 238.28 1067.07 230.84C1075.71 223.4 1080.03 213.56 1080.03 201.32ZM1226.2 240.56H1248.88C1252.48 240.56 1254.28 242.36 1254.28 245.96V263.6C1254.28 267.2 1252.48 269 1248.88 269H1163.2C1159.6 269 1157.8 267.2 1157.8 263.6V245.96C1157.8 242.36 1159.6 240.56 1163.2 240.56C1163.2 240.56 1170.76 240.56 1185.88 240.56V120.32H1166.44C1162.84 120.32 1161.04 118.52 1161.04 114.92V96.2C1161.04 92.6 1162.84 90.8 1166.44 90.8H1220.8C1224.4 90.8 1226.2 92.6 1226.2 96.2V240.56ZM1182.64 58.76C1178.08 53.96 1175.8 47.84 1175.8 40.4C1175.8 32.96 1178.08 26.84 1182.64 22.04C1187.44 17 1193.68 14.48 1201.36 14.48C1209.28 14.48 1215.52 17 1220.08 22.04C1224.88 26.84 1227.28 32.96 1227.28 40.4C1227.28 47.84 1224.88 53.96 1220.08 58.76C1215.28 63.56 1208.92 65.96 1201 65.96C1193.32 65.96 1187.2 63.56 1182.64 58.76ZM1329.5 120.32V211.04C1329.5 222.32 1330.94 230.48 1333.82 235.52C1336.7 240.56 1342.1 243.08 1350.02 243.08C1357.94 243.08 1365.62 241.4 1373.06 238.04C1375.7 237.08 1377.62 238.04 1378.82 240.92L1385.3 257.48C1385.54 258.2 1385.66 259.28 1385.66 260.72C1385.66 261.92 1384.46 263.24 1382.06 264.68C1370.54 270.44 1356.86 273.32 1341.02 273.32C1319.66 273.32 1305.62 267.8 1298.9 256.76C1294.1 249.56 1291.34 242.6 1290.62 235.88C1289.66 226.76 1289.18 217.16 1289.18 207.08V120.32H1268.66C1265.06 120.32 1263.26 118.52 1263.26 114.92V96.2C1263.26 92.6 1265.06 90.8 1268.66 90.8H1289.18V42.2C1289.18 38.6 1290.98 36.8 1294.58 36.8H1324.1C1327.7 36.8 1329.5 38.6 1329.5 42.2V90.8H1365.86C1369.46 90.8 1371.26 92.6 1371.26 96.2V114.92C1371.26 118.52 1369.46 120.32 1365.86 120.32H1329.5Z" fill="white"/>
</svg>
